<?xml version="1.0" encoding="UTF-8"?><svg id="b" xmlns="http://www.w3.org/2000/svg" width="361.2191" height="135" viewBox="0 0 361.2191 135"><defs><style>.d{fill:#ffed99;}.d,.e,.f,.g,.h{stroke-width:0px;}.e{fill:#ffd100;}.f{fill:#97d700;}.g{fill:#fff;}.h{fill:#d5ef99;}</style></defs><g id="c"><polygon class="f" points="167.35644 25.06277 160.9234 25.06277 176.36392 61.12965 176.38884 46.93618 167.35644 25.06277"/><polygon class="h" points="185.45736 25.06277 176.38884 46.93618 176.36392 61.12965 191.74591 25.06277 185.45736 25.06277"/><polygon class="e" points="176.44652 0 169.23561 16.74748 176.44652 33.49496 176.44652 22.96973 173.87711 16.74748 176.44652 10.52509 176.44652 0"/><polygon class="d" points="176.44652 33.49496 183.62887 16.74748 176.44652 0 176.46388 10.48392 179.06073 16.74748 176.46388 23.0109 176.44652 33.49496"/><path class="g" d="M3.68255,87.7974h7.65333v-50.82305H3.68255v50.82305ZM48.69755,62.66225l-17.14804-25.6879h-7.21987v50.82305h7.51445v-36.92149l16.07391,23.57491h1.42247l16.07279-23.63652v36.98309h7.65333v-50.82305h-7.22099l-17.14804,25.6879ZM121.09565,74.67316c-4.22373,4.03388-8.38585,6.72089-14.96393,6.72089-9.95729,0-17.75735-8.34945-17.75735-19.00789v-.13945c0-10.75701,7.63429-18.869,17.75735-18.869,5.48827,0,9.83968,1.90689,14.54839,6.37591l.79188.75156,5.23066-5.61651-.7818-.73756c-4.41302-4.161-9.85648-8.01119-19.71969-8.01119-14.40502,0-25.68846,11.52872-25.68846,26.24624v.13889c0,14.88329,10.95414,26.1068,25.48013,26.1068,10.11634,0,15.9059-4.48526,20.23379-8.87251l.76164-.77172-5.13545-5.03745-.75716.723ZM135.8759,87.7974h7.65445v-50.82305h-7.65445v50.82305ZM248.87486,52.654v-.13889c0-4.0546-1.44487-7.73342-4.06916-10.35771-3.34224-3.34224-8.52698-5.18305-14.59879-5.18305h-22.0046v50.82305h7.65333v-18.90821h12.28028l14.11157,18.90821h9.44878l-15.23275-20.26515c7.80902-1.99258,12.41133-7.45564,12.41133-14.87825ZM241.15209,52.72345v.13889c0,5.42443-4.48806,8.92908-11.4324,8.92908h-13.86404v-17.57926h13.9346c7.21987,0,11.36184,3.10199,11.36184,8.5113ZM267.2572,65.76144h26.55426v-7.16779h-26.55426v-14.45151h29.68257v-7.16779h-37.33591v50.82305h37.68312v-7.16779h-30.02979v-14.86817ZM316.12184,80.62961v-14.86817h26.55426v-7.16779h-26.55426v-14.45151h29.68257v-7.16779h-37.33591v50.82305h37.68312v-7.16779h-30.02979ZM176.21886,77.15575l-16.58801-40.17021h-8.47881l21.5689,50.51951,3.46545,7.99047,24.9537-58.50998h-8.26712l-16.65409,40.17021Z"/><path class="g" d="M0,117.53885c0-7.56264,3.05999-13.30324,8.31753-16.86673l.96437,1.86082c-4.42534,3.48411-6.82001,8.3146-6.82001,15.00591s2.39468,11.5218,6.82001,15.00591l-.96437,1.86082c-5.25754-3.56349-8.31753-9.30409-8.31753-16.86673Z"/><path class="g" d="M10.80965,126.40788l1.26454-2.09834c1.62968,1.62329,3.32656,2.49402,5.05705,2.49402,1.89625,0,3.22688-1.267,3.22688-3.20659v-.03999c0-1.82143-1.43031-2.77153-3.76002-3.91978-2.76094-1.42515-4.95624-2.73154-4.95624-5.93874v-.07938c0-3.36535,2.29499-5.62245,5.38858-5.62245,1.96346,0,3.993.91072,5.45691,2.21711l-1.16486,2.17772c-1.33063-1.14824-2.82814-1.9402-4.35813-1.9402-1.83017,0-2.99391,1.267-2.99391,2.8909v.07877c0,1.74206,1.49639,2.61339,3.85859,3.80101,2.86174,1.50453,4.85768,2.93029,4.85768,6.05811v.07938c0,3.68225-2.49548,5.93874-5.62268,5.93874-2.12922,0-4.42422-.99009-6.25439-2.8903Z"/><path class="g" d="M25.3446,118.80585v-.19814c0-6.29503,3.09471-10.69046,7.15379-10.69046,4.35813,0,6.95218,4.43482,6.95218,10.65108,0,.27691,0,.83134-.03248,1.18763h-11.64409c.26545,4.55358,2.62765,7.08759,5.3561,7.08759,1.89625,0,3.29296-.9501,4.49142-2.37586l1.36423,1.82143c-1.5636,1.9002-3.36016,3.08844-5.95533,3.08844-4.22597,0-7.68582-4.03854-7.68582-10.5717ZM37.05589,117.53885c-.16689-3.91978-1.73048-7.12698-4.5575-7.12698-2.56269,0-4.49142,2.81153-4.72439,7.12698h9.28189Z"/><path class="g" d="M43.67206,124.15078v-13.30324h-2.09562v-2.53401h2.09562v-6.01812h2.3958v6.01812h4.5239v2.53401h-4.5239v12.82819c0,2.17772.99797,2.96967,2.49548,2.96967.66531,0,1.33063-.19814,2.02842-.55443v2.45524c-.765.43506-1.59608.71258-2.59405.71258-2.46188,0-4.32565-1.42576-4.32565-5.10801Z"/><path class="g" d="M54.11545,108.31353h2.3958v3.28597c.96437-1.93959,2.3622-3.68225,4.85656-3.68225,2.32971,0,3.95939,1.50514,4.79159,3.76163,1.06405-2.01897,2.66125-3.76163,5.3225-3.76163,3.36016,0,5.52299,2.77214,5.52299,7.56264v13.462h-2.3958v-12.70943c0-3.76163-1.39671-5.74121-3.7589-5.74121-2.26251,0-4.09268,2.13773-4.09268,5.85997v12.59067h-2.39468v-12.74942c0-3.68225-1.39783-5.70122-3.76002-5.70122-2.32859,0-4.09156,2.41525-4.09156,5.89936v12.55128h-2.3958v-20.62836Z"/><path class="g" d="M80.4905,118.80585v-.19814c0-6.29503,3.09471-10.69046,7.15379-10.69046,4.35813,0,6.95218,4.43482,6.95218,10.65108,0,.27691,0,.83134-.03248,1.18763h-11.64409c.26545,4.55358,2.62765,7.08759,5.3561,7.08759,1.89625,0,3.29296-.9501,4.49142-2.37586l1.36423,1.82143c-1.5636,1.9002-3.36016,3.08844-5.95533,3.08844-4.22597,0-7.68582-4.03854-7.68582-10.5717ZM92.20179,117.53885c-.16689-3.91978-1.73048-7.12698-4.5575-7.12698-2.56269,0-4.49142,2.81153-4.72439,7.12698h9.28189Z"/><path class="g" d="M98.31841,100.35521h2.3958v28.58668h-2.3958v-28.58668Z"/><path class="g" d="M104.37119,122.96315v-.15815c0-4.23668,2.56157-6.65193,6.38767-6.65193,1.83017,0,3.16079.35629,4.45782.83134v-1.22701c0-3.32596-1.62968-5.10801-4.42422-5.10801-1.73048,0-3.22688.63381-4.42534,1.38577l-.765-2.33587c1.6308-.9501,3.32656-1.66328,5.45579-1.66328,2.09674,0,3.72642.71318,4.85768,2.05896,1.06517,1.267,1.66328,3.16781,1.66328,5.58306v13.26386h-2.3622v-3.00906c-1.03045,1.9402-2.72733,3.44473-5.2889,3.44473-2.89534,0-5.55659-2.33587-5.55659-6.4144ZM115.25028,121.77553v-2.574c-1.09765-.47505-2.49548-.83134-4.19237-.83134-2.76094,0-4.29093,1.70267-4.29093,4.31606v.11876c0,2.57339,1.62968,4.19669,3.69282,4.19669,2.66125.03999,4.79047-2.21711,4.79047-5.22617Z"/><path class="g" d="M121.90005,108.31353h2.3958v3.36535c.96437-2.05896,2.52796-3.76163,5.12313-3.76163,3.52593,0,5.65516,2.8909,5.65516,7.52326v13.50138h-2.39468v-12.70943c0-3.68225-1.46391-5.74121-3.993-5.74121-2.52796,0-4.39061,2.37525-4.39061,5.89936v12.55128h-2.3958v-20.62836Z"/><path class="g" d="M138.4959,118.80585v-.27691c0-6.01873,3.26048-10.61169,7.7183-10.61169,4.45894,0,7.68582,4.55358,7.68582,10.5717v.23753c0,6.01873-3.26048,10.65108-7.7183,10.65108s-7.68582-4.55358-7.68582-10.5717ZM151.47173,118.76647v-.19814c0-4.63235-2.32971-8.07708-5.29002-8.07708-3.06111,0-5.22394,3.44473-5.22394,8.03769v.19753c0,4.63296,2.29611,8.07708,5.25642,8.07708,3.06111,0,5.25754-3.48411,5.25754-8.03709Z"/><path class="g" d="M158.31975,124.15078v-13.30324h-2.09562v-2.53401h2.09562v-6.01812h2.3958v6.01812h4.5239v2.53401h-4.5239v12.82819c0,2.17772.99797,2.96967,2.49548,2.96967.66531,0,1.33063-.19814,2.02842-.55443v2.45524c-.765.43506-1.59608.71258-2.59405.71258-2.46188,0-4.32565-1.42576-4.32565-5.10801Z"/><path class="g" d="M168.82922,100.7115h2.66237v3.36535h-2.66237v-3.36535ZM168.96251,108.31353h2.3958v20.62836h-2.3958v-20.62836Z"/><path class="g" d="M175.28186,118.84524v-.39567c0-6.85007,3.39265-10.53232,6.9197-10.53232,2.76094,0,4.49142,1.98019,5.62268,4.23668v-11.79871h2.39468v28.58668h-2.39468v-3.95916c-1.16486,2.33587-2.89422,4.35484-5.62268,4.35484-3.52705,0-6.9197-3.60287-6.9197-10.49232ZM187.92392,118.80585v-.35629c0-4.86988-2.49548-7.95832-5.22282-7.95832-2.76206,0-4.95736,2.8903-4.95736,7.95832v.3169c0,5.02803,2.26251,7.9977,4.95736,7.9977,2.72733,0,5.22282-3.08844,5.22282-7.95832Z"/><path class="g" d="M193.87477,118.80585v-.19814c0-6.29503,3.09471-10.69046,7.15379-10.69046,4.35813,0,6.95218,4.43482,6.95218,10.65108,0,.27691,0,.83134-.03248,1.18763h-11.64409c.26545,4.55358,2.62765,7.08759,5.3561,7.08759,1.89625,0,3.29296-.9501,4.49142-2.37586l1.36423,1.82143c-1.5636,1.9002-3.36016,3.08844-5.95533,3.08844-4.22597,0-7.68582-4.03854-7.68582-10.5717ZM205.58606,117.53885c-.16689-3.91978-1.73048-7.12698-4.5575-7.12698-2.56269,0-4.49142,2.81153-4.72439,7.12698h9.28189Z"/><path class="g" d="M209.77395,132.54476c4.39061-3.48411,6.82001-8.3146,6.82001-15.00591s-2.4294-11.5218-6.82001-15.00591l.96437-1.86082c5.25642,3.56349,8.28393,9.30409,8.28393,16.86673s-3.02751,13.30324-8.28393,16.86673l-.96437-1.86082Z"/><path class="g" d="M231.45933,100.7115h2.66237v3.36535h-2.66237v-3.36535ZM231.59261,108.31353h2.3958v20.62836h-2.3958v-20.62836Z"/><path class="g" d="M238.77664,108.31353h2.3958v3.36535c.96437-2.05896,2.52796-3.76163,5.12313-3.76163,3.52593,0,5.65516,2.8909,5.65516,7.52326v13.50138h-2.39468v-12.70943c0-3.68225-1.46391-5.74121-3.993-5.74121-2.52796,0-4.39061,2.37525-4.39061,5.89936v12.55128h-2.3958v-20.62836Z"/><path class="g" d="M253.54345,134.80186v-2.37586c.33266.07938.7314.11876,1.03045.11876,1.33175,0,1.99706-.98949,1.99706-2.85031v-21.38093h2.39468v21.57846c0,3.28658-1.36423,5.10801-3.99188,5.10801-.56563,0-.96437-.07938-1.43031-.19814ZM256.43767,100.7115h2.66125v3.36535h-2.66125v-3.36535Z"/><path class="g" d="M262.8231,118.80585v-.19814c0-6.29503,3.09471-10.69046,7.15379-10.69046,4.35813,0,6.95218,4.43482,6.95218,10.65108,0,.27691,0,.83134-.03248,1.18763h-11.64409c.26545,4.55358,2.62765,7.08759,5.3561,7.08759,1.89625,0,3.29296-.9501,4.49142-2.37586l1.36423,1.82143c-1.5636,1.9002-3.36016,3.08844-5.95533,3.08844-4.22597,0-7.68582-4.03854-7.68582-10.5717ZM274.53439,117.53885c-.16689-3.91978-1.73048-7.12698-4.5575-7.12698-2.56269,0-4.49142,2.81153-4.72439,7.12698h9.28189Z"/><path class="g" d="M279.51976,118.84524v-.27691c0-6.25565,3.39377-10.65108,7.7183-10.65108,2.463,0,4.12628,1.22762,5.45691,2.81153l-1.43031,2.13773c-1.03157-1.22701-2.26251-2.33587-4.05908-2.33587-2.89422,0-5.22394,3.24659-5.22394,8.03769v.19814c0,4.86988,2.3958,7.9977,5.32362,7.9977,1.69688,0,2.9603-1.02948,4.05908-2.37586l1.39671,1.90081c-1.29702,1.74206-3.02751,3.08844-5.58907,3.08844-4.35813,0-7.65221-4.27606-7.65221-10.53232Z"/><path class="g" d="M296.68348,124.15078v-13.30324h-2.09562v-2.53401h2.09562v-6.01812h2.3958v6.01812h4.5239v2.53401h-4.5239v12.82819c0,2.17772.99797,2.96967,2.49548,2.96967.66531,0,1.33063-.19814,2.02842-.55443v2.45524c-.765.43506-1.59608.71258-2.59405.71258-2.46188,0-4.32565-1.42576-4.32565-5.10801Z"/><path class="g" d="M307.19295,100.7115h2.66237v3.36535h-2.66237v-3.36535ZM307.32624,108.31353h2.3958v20.62836h-2.3958v-20.62836Z"/><path class="g" d="M313.57839,118.80585v-.27691c0-6.01873,3.26048-10.61169,7.7183-10.61169,4.45894,0,7.68582,4.55358,7.68582,10.5717v.23753c0,6.01873-3.26048,10.65108-7.7183,10.65108s-7.68582-4.55358-7.68582-10.5717ZM326.55422,118.76647v-.19814c0-4.63235-2.32971-8.07708-5.29002-8.07708-3.06111,0-5.22394,3.44473-5.22394,8.03769v.19753c0,4.63296,2.29611,8.07708,5.25642,8.07708,3.06111,0,5.25754-3.48411,5.25754-8.03709Z"/><path class="g" d="M332.63724,108.31353h2.3958v3.36535c.96437-2.05896,2.52796-3.76163,5.12313-3.76163,3.52593,0,5.65516,2.8909,5.65516,7.52326v13.50138h-2.39468v-12.70943c0-3.68225-1.46391-5.74121-3.993-5.74121-2.52796,0-4.39061,2.37525-4.39061,5.89936v12.55128h-2.3958v-20.62836Z"/><path class="g" d="M348.52333,43.34272c0-3.50721,2.83976-6.34705,6.3487-6.34705,3.50558,0,6.34707,2.83984,6.34707,6.34705s-2.84149,6.34873-6.34707,6.34873c-3.50894,0-6.3487-2.84149-6.3487-6.34873M359.93767,43.34272c0-2.8932-2.24421-5.15572-5.06564-5.15572-2.82479,0-5.069,2.26252-5.069,5.15572s2.24421,5.15574,5.069,5.15574c2.82143,0,5.06564-2.26252,5.06564-5.15574M352.69626,39.90557h2.57783c1.2965,0,2.20918.96441,2.20918,2.10568,0,.96441-.59565,1.59509-1.34987,1.85705l1.52503,2.89323h-1.41993l-1.40323-2.71801h-.87764v2.71801h-1.26137v-6.85596ZM355.11726,43.04573c.66572,0,1.12124-.45718,1.12124-1.03447,0-.58066-.45552-1.0345-1.12124-1.0345h-1.15963v2.06897h1.15963Z"/></g></svg>